<?xml version="1.0" encoding="UTF-8" standalone="no"?>
<svg xmlns="http://www.w3.org/2000/svg" xmlns:xlink="http://www.w3.org/1999/xlink" viewBox="0 0 500 500">
  <defs>
    <linearGradient id="flame" x1="0%" y1="0%" x2="100%" y2="100%">
      <stop offset="0%" style="stop-color:#FF6B00"/>
      <stop offset="100%" style="stop-color:#FF3800"/>
    </linearGradient>
    <linearGradient id="cool" x1="0%" y1="0%" x2="100%" y2="100%">
      <stop offset="0%" style="stop-color:#00B4DB"/>
      <stop offset="100%" style="stop-color:#0083B0"/>
    </linearGradient>
  </defs>
  <!-- Thermometer body -->
  <rect x="220" y="100" width="60" height="300" rx="30" fill="#2C3E50"/>
  <!-- Cool side -->
  <path d="M200 250 C180 220, 160 200, 160 160 C160 120, 190 90, 230 90 C270 90, 300 120, 300 160" fill="url(#cool)" opacity="0.9"/>
  <!-- Warm side -->
  <path d="M300 250 C320 280, 340 300, 340 340 C340 380, 310 410, 270 410 C230 410, 200 380, 200 340" fill="url(#flame)" opacity="0.9"/>
  <!-- Thermometer mercury -->
  <circle cx="250" cy="250" r="20" fill="#E74C3C"/>
  <!-- Snowflakes and flames decorative elements -->
  <g fill="#48dbfb" opacity="0.7">
    <circle cx="180" cy="140" r="5"/>
    <circle cx="160" cy="180" r="5"/>
    <circle cx="200" cy="160" r="5"/>
  </g>
  <g fill="#ff7f50" opacity="0.7">
    <circle cx="320" cy="360" r="5"/>
    <circle cx="340" cy="320" r="5"/>
    <circle cx="300" cy="340" r="5"/>
  </g>
</svg>
