<?xml version="1.0" encoding="UTF-8"?>
<svg width="100" height="100" version="1.1" viewBox="0 0 100 100" xmlns="http://www.w3.org/2000/svg">
  <!-- Work Boot -->
  <g>
    <!-- Boot Main Body -->
    <path d="M20,60 L25,40 C30,35 40,35 60,35 C70,35 75,40 75,40 L80,60 L85,65 L85,75 L15,75 L15,65 Z" 
          fill="#8B4513"/>
    
    <!-- Boot Sole -->
    <path d="M15,75 L85,75 L85,80 C85,82 83,85 80,85 L20,85 C17,85 15,82 15,80 Z" 
          fill="#4E342E"/>
    
    <!-- Laces -->
    <line x1="45" y1="45" x2="55" y2="52" stroke="white" stroke-width="2"/>
    <line x1="55" y1="45" x2="45" y2="52" stroke="white" stroke-width="2"/>
    
    <!-- Lace Holes -->
    <circle cx="45" cy="45" r="2" fill="#3E2723"/>
    <circle cx="55" cy="45" r="2" fill="#3E2723"/>
    <circle cx="45" cy="52" r="2" fill="#3E2723"/>
    <circle cx="55" cy="52" r="2" fill="#3E2723"/>
  </g>
</svg>